<svg id="SvgjsSvg1000" xmlns="http://www.w3.org/2000/svg" version="1.1" xmlns:xlink="http://www.w3.org/1999/xlink" xmlns:svgjs="http://svgjs.com/svgjs" width="156" height="6" viewBox="0 0 156 6"><title>Shape 1</title><desc>Created with Avocode.</desc><defs id="SvgjsDefs1001"></defs><path id="SvgjsPath1007" d="M683.123 1445C683.2080000000001 1444.2 683.4380000000001 1443.27 683.998 1442.54L541.099 1442.54C540.981 1442.59 539.6790000000001 1443.8799999999999 539.596 1444.51L533.998 1444.51C534.197 1443.3799999999999 534.9920000000001 1442.41 536.433 1441.99C535.009 1441.6 534.131 1440.56 533.998 1439.47L539.596 1439.47C539.696 1440.13 541.077 1441.43 541.121 1441.45L683.981 1441.45C683.427 1440.73 683.151 1439.74 683.123 1439C684.383 1440.27 686.0210000000001 1441.38 688.0010000000001 1442C686.0210000000001 1442.59 684.455 1443.77 683.123 1445Z " fill="#4e4e4e" fill-opacity="1" transform="matrix(1,0,0,1,-533,-1439)"></path></svg>